<svg width="13" height="14" viewBox="0 0 13 14" fill="none" xmlns="http://www.w3.org/2000/svg">
<path d="M7.34809 12.8585L6.71459 13.536C6.44635 13.8228 6.01261 13.8228 5.74722 13.536L0.19984 7.60639C-0.0683981 7.31952 -0.0683981 6.85565 0.19984 6.57184L5.74722 0.639224C6.01546 0.352358 6.4492 0.352358 6.71459 0.639224L7.34809 1.31671C7.61918 1.60663 7.61347 2.07965 7.33667 2.36347L3.89809 5.86688L12.0993 5.86688C12.4788 5.86688 12.7842 6.19342 12.7842 6.5993L12.7842 7.57587C12.7842 7.98175 12.4788 8.30829 12.0993 8.30829L3.89809 8.30829L7.33667 11.8117C7.61633 12.0955 7.62203 12.5685 7.34809 12.8585Z" fill="white"/>
</svg>
