<svg width="13" height="14" viewBox="0 0 13 14" fill="none" xmlns="http://www.w3.org/2000/svg">
<path d="M5.43609 1.00122L6.06959 0.32373C6.33783 0.0368652 6.77157 0.0368652 7.03696 0.32373L12.5843 6.2533C12.8526 6.54016 12.8526 7.00403 12.5843 7.28784L7.03696 13.2205C6.76872 13.5073 6.33497 13.5073 6.06959 13.2205L5.43609 12.543C5.165 12.2531 5.17071 11.78 5.44751 11.4962L8.88608 7.9928H0.684862C0.305334 7.9928 0 7.66626 0 7.26038V6.28381C0 5.87793 0.305334 5.55139 0.684862 5.55139H8.88608L5.44751 2.04797C5.16785 1.76416 5.16215 1.29114 5.43609 1.00122Z" fill="white"/>
</svg>
