<svg width="16" height="14" viewBox="0 0 16 14" fill="none" xmlns="http://www.w3.org/2000/svg">
<path d="M3.71532 8.33325C3.90016 8.33325 4.07744 8.40349 4.20815 8.52852C4.33886 8.65354 4.41229 8.82311 4.41229 8.99992C4.41229 9.17673 4.33886 9.3463 4.20815 9.47132C4.07744 9.59635 3.90016 9.66659 3.71532 9.66659C3.25768 9.66659 2.80452 9.58037 2.38172 9.41285C1.95892 9.24534 1.57476 8.9998 1.25116 8.69028C0.597621 8.06516 0.230469 7.21731 0.230469 6.33325C0.230469 5.4492 0.597621 4.60135 1.25116 3.97623C1.90469 3.35111 2.79108 2.99992 3.71532 2.99992C4.41229 1.43325 6.01532 0.333252 7.89713 0.333252C10.2877 0.333252 12.2462 2.10659 12.4274 4.35325L12.7759 4.33325C13.5153 4.33325 14.2244 4.6142 14.7472 5.1143C15.2701 5.6144 15.5638 6.29268 15.5638 6.99992C15.5638 7.70716 15.2701 8.38544 14.7472 8.88554C14.2244 9.38564 13.5153 9.66659 12.7759 9.66659H12.079C11.8941 9.66659 11.7168 9.59635 11.5861 9.47132C11.4554 9.3463 11.382 9.17673 11.382 8.99992C11.382 8.82311 11.4554 8.65354 11.5861 8.52852C11.7168 8.40349 11.8941 8.33325 12.079 8.33325H12.7759C13.1456 8.33325 13.5002 8.19278 13.7616 7.94273C14.023 7.69268 14.1699 7.35354 14.1699 6.99992C14.1699 6.6463 14.023 6.30716 13.7616 6.05711C13.5002 5.80706 13.1456 5.66659 12.7759 5.66659H11.382V4.99992C11.382 4.11586 11.0148 3.26802 10.3613 2.6429C9.70776 2.01778 8.82137 1.66659 7.89713 1.66659C6.15471 1.66659 4.72592 2.87992 4.4541 4.45992C4.2241 4.37992 3.9732 4.33325 3.71532 4.33325C3.16077 4.33325 2.62894 4.54397 2.23682 4.91904C1.8447 5.29411 1.62441 5.80282 1.62441 6.33325C1.62441 6.86369 1.8447 7.37239 2.23682 7.74747C2.62894 8.12254 3.16077 8.33325 3.71532 8.33325ZM6.50319 10.9999C6.87289 10.9999 7.22744 11.1404 7.48886 11.3904C7.75027 11.6405 7.89713 11.9796 7.89713 12.3333C7.89713 12.6869 7.75027 13.026 7.48886 13.2761C7.22744 13.5261 6.87289 13.6666 6.50319 13.6666C6.1335 13.6666 5.77895 13.5261 5.51753 13.2761C5.25612 13.026 5.10926 12.6869 5.10926 12.3333C5.10926 11.9796 5.25612 11.6405 5.51753 11.3904C5.77895 11.1404 6.1335 10.9999 6.50319 10.9999ZM9.63956 9.66659C9.91683 9.66659 10.1827 9.77194 10.3788 9.95948C10.5749 10.147 10.685 10.4014 10.685 10.6666C10.685 10.9318 10.5749 11.1862 10.3788 11.3737C10.1827 11.5612 9.91683 11.6666 9.63956 11.6666C9.36229 11.6666 9.09637 11.5612 8.90031 11.3737C8.70425 11.1862 8.5941 10.9318 8.5941 10.6666C8.5941 10.4014 8.70425 10.147 8.90031 9.95948C9.09637 9.77194 9.36229 9.66659 9.63956 9.66659ZM6.85168 6.99992C7.12895 6.99992 7.39487 7.10528 7.59093 7.29281C7.78699 7.48035 7.89713 7.7347 7.89713 7.99992C7.89713 8.26514 7.78699 8.51949 7.59093 8.70703C7.39487 8.89456 7.12895 8.99992 6.85168 8.99992C6.57441 8.99992 6.30849 8.89456 6.11243 8.70703C5.91637 8.51949 5.80623 8.26514 5.80623 7.99992C5.80623 7.7347 5.91637 7.48035 6.11243 7.29281C6.30849 7.10528 6.57441 6.99992 6.85168 6.99992Z" fill="white"/>
</svg>
