<svg width="11" height="14" viewBox="0 0 11 14" fill="none" xmlns="http://www.w3.org/2000/svg">
<path d="M5.49984 0.333252C2.75859 0.333252 0.541504 2.41992 0.541504 4.99992C0.541504 7.77992 3.67234 11.6133 4.9615 13.0733C5.24484 13.3933 5.76192 13.3933 6.04525 13.0733C7.32734 11.6133 10.4582 7.77992 10.4582 4.99992C10.4582 2.41992 8.24109 0.333252 5.49984 0.333252ZM5.49984 6.66659C5.03018 6.66659 4.57976 6.49099 4.24767 6.17843C3.91557 5.86587 3.729 5.44195 3.729 4.99992C3.729 4.55789 3.91557 4.13397 4.24767 3.82141C4.57976 3.50885 5.03018 3.33325 5.49984 3.33325C5.96949 3.33325 6.41991 3.50885 6.75201 3.82141C7.0841 4.13397 7.27067 4.55789 7.27067 4.99992C7.27067 5.44195 7.0841 5.86587 6.75201 6.17843C6.41991 6.49099 5.96949 6.66659 5.49984 6.66659Z" fill="white"/>
</svg>
