<svg width="12" height="12" viewBox="0 0 12 12" fill="none" xmlns="http://www.w3.org/2000/svg">
<path d="M0.867025 4.83342C0.712315 4.83342 0.563942 4.77196 0.454546 4.66256C0.34515 4.55316 0.283691 4.40479 0.283691 4.25008C0.283691 4.09537 0.34515 3.947 0.454546 3.8376C0.563942 3.72821 0.712315 3.66675 0.867025 3.66675H5.53369C5.84311 3.66675 6.13986 3.54383 6.35865 3.32504C6.57744 3.10625 6.70036 2.8095 6.70036 2.50008C6.70036 2.19066 6.57744 1.89392 6.35865 1.67512C6.13986 1.45633 5.84311 1.33341 5.53369 1.33341C5.21286 1.33341 4.92119 1.46175 4.71119 1.67758C4.6581 1.73424 4.59396 1.7794 4.52272 1.81027C4.45148 1.84114 4.37467 1.85707 4.29703 1.85707C4.21938 1.85707 4.14257 1.84114 4.07133 1.81027C4.00009 1.7794 3.93595 1.73424 3.88286 1.67758C3.65536 1.45008 3.65536 1.07675 3.88286 0.849248C4.30869 0.429248 4.89202 0.166748 5.53369 0.166748C6.15253 0.166748 6.74602 0.412581 7.18361 0.850166C7.62119 1.28775 7.86703 1.88124 7.86703 2.50008C7.86703 3.11892 7.62119 3.71241 7.18361 4.15C6.74602 4.58758 6.15253 4.83342 5.53369 4.83342H0.867025ZM9.61703 6.00008C9.77174 6.00008 9.92011 5.93862 10.0295 5.82923C10.1389 5.71983 10.2004 5.57146 10.2004 5.41675C10.2004 5.26204 10.1389 5.11367 10.0295 5.00427C9.92011 4.89487 9.77174 4.83342 9.61703 4.83342C9.45369 4.83342 9.30786 4.89758 9.20286 5.00258C9.14889 5.05666 9.08479 5.09956 9.01422 5.12883C8.94366 5.15811 8.86801 5.17317 8.79161 5.17317C8.71521 5.17317 8.63956 5.15811 8.56899 5.12883C8.49843 5.09956 8.43432 5.05666 8.38036 5.00258C8.15869 4.77508 8.15869 4.40758 8.38036 4.18008C8.69536 3.86508 9.13286 3.66675 9.61703 3.66675C10.0812 3.66675 10.5263 3.85112 10.8545 4.17931C11.1827 4.5075 11.367 4.95262 11.367 5.41675C11.367 5.88088 11.1827 6.326 10.8545 6.65419C10.5263 6.98237 10.0812 7.16675 9.61703 7.16675H1.45036C1.29565 7.16675 1.14728 7.10529 1.03788 6.99589C0.928483 6.8865 0.867025 6.73812 0.867025 6.58342C0.867025 6.42871 0.928483 6.28033 1.03788 6.17094C1.14728 6.06154 1.29565 6.00008 1.45036 6.00008H9.61703ZM9.03369 9.50008H0.867025C0.712315 9.50008 0.563942 9.43862 0.454546 9.32923C0.34515 9.21983 0.283691 9.07146 0.283691 8.91675C0.283691 8.76204 0.34515 8.61367 0.454546 8.50427C0.563942 8.39487 0.712315 8.33342 0.867025 8.33342H9.03369C9.49782 8.33342 9.94294 8.51779 10.2711 8.84598C10.5993 9.17417 10.7837 9.61929 10.7837 10.0834C10.7837 10.5475 10.5993 10.9927 10.2711 11.3209C9.94294 11.649 9.49782 11.8334 9.03369 11.8334C8.54953 11.8334 8.11203 11.6351 7.79703 11.3201C7.57536 11.0926 7.57536 10.7251 7.79703 10.4976C7.85099 10.4435 7.91509 10.4006 7.98566 10.3713C8.05623 10.3421 8.13188 10.327 8.20827 10.327C8.28467 10.327 8.36032 10.3421 8.43089 10.3713C8.50146 10.4006 8.56556 10.4435 8.61953 10.4976C8.72453 10.6026 8.87036 10.6667 9.03369 10.6667C9.1884 10.6667 9.33677 10.6053 9.44617 10.4959C9.55557 10.3865 9.61703 10.2381 9.61703 10.0834C9.61703 9.92871 9.55557 9.78033 9.44617 9.67094C9.33677 9.56154 9.1884 9.50008 9.03369 9.50008Z" fill="white"/>
</svg>
