<svg width="15" height="16" viewBox="0 0 15 16" fill="none" xmlns="http://www.w3.org/2000/svg">
<path d="M8.28379 2.0001L7.53379 4.2006L6.78379 2.0001C6.74335 1.88092 6.7319 1.75382 6.75038 1.62933C6.76885 1.50484 6.81673 1.38655 6.89005 1.28425C6.96336 1.18196 7.06 1.09861 7.17195 1.04111C7.2839 0.983606 7.40794 0.953613 7.53379 0.953613C7.65965 0.953613 7.78369 0.983606 7.89564 1.04111C8.00759 1.09861 8.10423 1.18196 8.17754 1.28425C8.25085 1.38655 8.29873 1.50484 8.31721 1.62933C8.33569 1.75382 8.32423 1.88092 8.28379 2.0001ZM1.53379 7.2501L3.73429 8.0001L1.53379 8.7501C1.41461 8.79054 1.28751 8.80199 1.16302 8.78352C1.03853 8.76504 0.920238 8.71716 0.817943 8.64385C0.715647 8.57053 0.632297 8.4739 0.574797 8.36195C0.517297 8.25 0.487305 8.12595 0.487305 8.0001C0.487305 7.87425 0.517297 7.7502 0.574797 7.63825C0.632297 7.5263 0.715647 7.42967 0.817943 7.35635C0.920238 7.28304 1.03853 7.23516 1.16302 7.21668C1.28751 7.19821 1.41461 7.20966 1.53379 7.2501ZM6.78379 14.0001L7.53379 11.7996L8.28379 14.0001C8.32423 14.1193 8.33569 14.2464 8.31721 14.3709C8.29873 14.4954 8.25085 14.6137 8.17754 14.7159C8.10423 14.8182 8.00759 14.9016 7.89564 14.9591C7.78369 15.0166 7.65965 15.0466 7.53379 15.0466C7.40794 15.0466 7.2839 15.0166 7.17195 14.9591C7.06 14.9016 6.96336 14.8182 6.89005 14.7159C6.81673 14.6137 6.76885 14.4954 6.75038 14.3709C6.7319 14.2464 6.74335 14.1193 6.78379 14.0001ZM13.5338 8.7486L11.3333 7.9986L13.5338 7.2486C13.653 7.20816 13.7801 7.1967 13.9046 7.21518C14.0291 7.23366 14.1473 7.28154 14.2496 7.35485C14.3519 7.42817 14.4353 7.5248 14.4928 7.63675C14.5503 7.7487 14.5803 7.87275 14.5803 7.9986C14.5803 8.12445 14.5503 8.2485 14.4928 8.36045C14.4353 8.4724 14.3519 8.56903 14.2496 8.64235C14.1473 8.71566 14.0291 8.76354 13.9046 8.78202C13.7801 8.80049 13.653 8.78904 13.5338 8.7486ZM3.82129 3.2271L4.84654 5.31285L2.76079 4.2876C2.64745 4.23214 2.54898 4.15042 2.47357 4.04924C2.39816 3.94806 2.348 3.83034 2.32725 3.70587C2.30651 3.5814 2.31577 3.45377 2.35428 3.3336C2.39279 3.21343 2.45943 3.10419 2.54866 3.01496C2.63788 2.92574 2.74713 2.8591 2.86729 2.82059C2.98746 2.78208 3.11509 2.77281 3.23956 2.79356C3.36403 2.81431 3.48175 2.86447 3.58293 2.93988C3.68411 3.01528 3.76583 3.11375 3.82129 3.2271ZM2.76079 11.7118L4.84654 10.6866L3.82129 12.7724C3.76583 12.8857 3.68411 12.9842 3.58293 13.0596C3.48175 13.135 3.36403 13.1851 3.23956 13.2059C3.11509 13.2266 2.98746 13.2174 2.86729 13.1789C2.74713 13.1404 2.63788 13.0737 2.54866 12.9845C2.45943 12.8953 2.39279 12.786 2.35428 12.6658C2.31577 12.5457 2.30651 12.4181 2.32725 12.2936C2.348 12.1691 2.39816 12.0514 2.47357 11.9502C2.54898 11.849 2.64745 11.7673 2.76079 11.7118ZM11.2455 12.7724L10.2203 10.6866L12.306 11.7118C12.4194 11.7673 12.5179 11.849 12.5933 11.9502C12.6687 12.0514 12.7188 12.1691 12.7396 12.2936C12.7603 12.4181 12.7511 12.5457 12.7126 12.6658C12.674 12.786 12.6074 12.8953 12.5182 12.9845C12.429 13.0737 12.3197 13.1404 12.1995 13.1789C12.0794 13.2174 11.9517 13.2266 11.8273 13.2059C11.7028 13.1851 11.5851 13.135 11.4839 13.0596C11.3827 12.9842 11.301 12.8857 11.2455 12.7724ZM12.3053 4.2861L10.2188 5.3121L11.2448 3.2256C11.3003 3.11225 11.382 3.01378 11.4832 2.93838C11.5843 2.86297 11.7021 2.81281 11.8265 2.79206C11.951 2.77131 12.0786 2.78058 12.1988 2.81909C12.319 2.8576 12.4282 2.92424 12.5174 3.01346C12.6067 3.10269 12.6733 3.21193 12.7118 3.3321C12.7503 3.45227 12.7596 3.5799 12.7388 3.70437C12.7181 3.82884 12.6679 3.94656 12.5925 4.04774C12.5171 4.14892 12.4186 4.23064 12.3053 4.2861ZM7.53379 11.3751C5.67304 11.3751 4.15879 9.86085 4.15879 8.0001C4.15879 6.13935 5.67304 4.6251 7.53379 4.6251C9.39454 4.6251 10.9088 6.13935 10.9088 8.0001C10.9088 9.86085 9.39454 11.3751 7.53379 11.3751ZM7.53379 6.1251C6.49954 6.1251 5.65879 6.96585 5.65879 8.0001C5.65879 9.03435 6.49954 9.8751 7.53379 9.8751C8.56804 9.8751 9.40879 9.03435 9.40879 8.0001C9.40879 6.96585 8.56804 6.1251 7.53379 6.1251Z" fill="white"/>
</svg>
